<svg xmlns="http://www.w3.org/2000/svg" xmlns:xlink="http://www.w3.org/1999/xlink" viewBox="0 0 1120.73 683.14"><defs><style>.cls-1,.cls-88{fill:none;}.cls-2{isolation:isolate;}.cls-3{clip-path:url(#clip-path);}.cls-4{fill:#191a1e;}.cls-5{fill:#1a1a1f;}.cls-6{fill:#1b1b20;}.cls-7{fill:#1c1c21;}.cls-8{fill:#1c1d22;}.cls-9{fill:#1d1e23;}.cls-10{fill:#1e1f24;}.cls-11{fill:#1f2025;}.cls-12{clip-path:url(#clip-path-2);}.cls-13{fill:#16171b;}.cls-14{fill:#212228;}.cls-15{fill:#17181c;}.cls-16{fill:#25262d;}.cls-17{clip-path:url(#clip-path-3);}.cls-18{fill:#18191d;}.cls-19{clip-path:url(#clip-path-4);}.cls-20{fill:#2b2c34;}.cls-21{clip-path:url(#clip-path-5);}.cls-22{fill:#9195b3;}.cls-23{opacity:0.47;}.cls-24{clip-path:url(#clip-path-6);}.cls-25{fill:#fff;}.cls-26{fill:#5a6363;}.cls-27{fill:#879596;}.cls-28{fill:#f4f4f4;}.cls-29{fill:#dd626e;}.cls-30{fill:#ba525d;}.cls-31{fill:#d3595f;}.cls-32{fill:#6dd9f2;}.cls-33{fill:#7accf4;}.cls-34{clip-path:url(#clip-path-7);}.cls-35{fill:#65767a;}.cls-36{fill:#b2b6b7;}.cls-37{fill:#cacccc;}.cls-38{clip-path:url(#clip-path-8);}.cls-39{fill:#9ee8e6;}.cls-40{fill:#e1f4f3;}.cls-41{fill:#eff4f4;}.cls-42{clip-path:url(#clip-path-9);}.cls-43{fill:#a0d9ef;}.cls-44{fill:#778785;}.cls-45{clip-path:url(#clip-path-10);}.cls-46{clip-path:url(#clip-path-11);}.cls-47{fill:#00cec9;}.cls-48{fill:#02b5ac;}.cls-49{fill:#00bab1;}.cls-50{fill:#00b2a9;}.cls-51{fill:#009186;}.cls-52{fill:#008c85;}.cls-53{fill:#00ada4;}.cls-54{clip-path:url(#clip-path-12);}.cls-55{fill:#c7efed;}.cls-56{clip-path:url(#clip-path-13);}.cls-57{clip-path:url(#clip-path-14);}.cls-58{fill:#889e9c;}.cls-59{clip-path:url(#clip-path-15);}.cls-60{clip-path:url(#clip-path-16);}.cls-61{clip-path:url(#clip-path-17);}.cls-62{clip-path:url(#clip-path-18);}.cls-63{clip-path:url(#clip-path-19);}.cls-64{fill:#337f66;}.cls-65{fill:#4abc99;}.cls-66{fill:#f7c4ba;}.cls-67{fill:#fab1a0;}.cls-68{fill:#aa7b74;}.cls-69{fill:#3daa89;}.cls-70{fill:#b53749;}.cls-71{fill:#e5e5e5;}.cls-72{fill:#ccc;}.cls-73{fill:#7f2a2a;}.cls-74{fill:#b2bec3;}.cls-75{fill:#8f9799;}.cls-76{fill:#c8cccc;}.cls-77{fill:#98a0a3;}.cls-78{fill:#7c8082;}.cls-79{fill:#a1b2b7;}.cls-80{fill:#d16161;}.cls-81{fill:#af5252;}.cls-82{fill:#f78989;}.cls-83{clip-path:url(#clip-path-20);}.cls-84{fill:#fcfcfc;}.cls-85{fill:#878d8e;}.cls-86{fill:#6c7475;}.cls-87{fill:#8fd4ef;}.cls-88{stroke:#a0a5a4;stroke-miterlimit:10;}.cls-89{fill:#00b894;}.cls-90{fill:#028e73;}.cls-91{fill:#3ac1a7;}.cls-92{fill:#8c9699;}.cls-93{fill:#696f70;}.cls-94{fill:#937c67;}.cls-95{fill:#826f62;}.cls-96{fill:#3aaa95;}.cls-97{fill:#2e937f;}.cls-98{fill:#4ad3b9;}.cls-99{fill:#4f4f4f;opacity:0.2;}</style><clipPath id="clip-path" transform="translate(-22.55 -14.63)"><path class="cls-1" d="M1143.28,218.67l-.09,32.61c0,9-5.95,18-17.78,24.9l.09-32.61C1137.33,236.69,1143.25,227.69,1143.28,218.67Z"/></clipPath><clipPath id="clip-path-2" transform="translate(-22.55 -14.63)"><path class="cls-1" d="M22.55,494.35l.09-32.61c0,9.14,6,18.29,18.08,25.26l-.09,32.61C28.56,512.64,22.52,503.49,22.55,494.35Z"/></clipPath><clipPath id="clip-path-3" transform="translate(-22.55 -14.63)"><path class="cls-1" d="M417.9,654.78l-.09,32.61c-23.83,13.85-62.6,13.84-86.59,0l.09-32.61C355.29,668.62,394.06,668.63,417.9,654.78Z"/></clipPath><clipPath id="clip-path-4" transform="translate(-22.55 -14.63)"><polygon class="cls-1" points="0 459.55 790.78 0 1166.76 217.07 375.98 676.62 0 459.55"/></clipPath><clipPath id="clip-path-5" transform="translate(-22.55 -14.63)"><polygon class="cls-1" points="895.48 109.22 902.16 105.33 977.17 148.64 970.48 152.52 895.48 109.22"/></clipPath><clipPath id="clip-path-6" transform="translate(-22.55 -14.63)"><polygon class="cls-1" points="180.31 517.95 184.13 515.73 279.32 570.69 275.5 572.91 180.31 517.95"/></clipPath><clipPath id="clip-path-7" transform="translate(-22.55 -14.63)"><polygon class="cls-1" points="96.48 478.17 96.54 458.66 113.52 468.46 113.47 487.98 96.48 478.17"/></clipPath><clipPath id="clip-path-8" transform="translate(-22.55 -14.63)"><polygon class="cls-1" points="123.29 470.91 123.28 465.64 134.75 459.01 134.77 464.28 123.29 470.91"/></clipPath><clipPath id="clip-path-9" transform="translate(-22.55 -14.63)"><polygon class="cls-1" points="140.25 461.54 140.23 456.26 151.71 449.63 151.72 454.91 140.25 461.54"/></clipPath><clipPath id="clip-path-10" transform="translate(-22.55 -14.63)"><polygon class="cls-1" points="62.66 460.03 62.71 442.13 78.29 451.13 78.24 469.03 62.66 460.03"/></clipPath><clipPath id="clip-path-11" transform="translate(-22.55 -14.63)"><polygon class="cls-1" points="252.92 396.76 253 371.07 275.36 383.98 275.28 409.67 252.92 396.76"/></clipPath><clipPath id="clip-path-12" transform="translate(-22.55 -14.63)"><polygon class="cls-1" points="242.89 404.59 242.86 395.74 250.56 391.3 250.59 400.15 242.89 404.59"/></clipPath><clipPath id="clip-path-13" transform="translate(-22.55 -14.63)"><polygon class="cls-1" points="270.3 388.6 270.28 379.75 277.98 375.31 278 384.15 270.3 388.6"/></clipPath><clipPath id="clip-path-14" transform="translate(-22.55 -14.63)"><polygon class="cls-1" points="248.67 410.82 248.65 402.67 275.12 387.38 275.14 395.54 248.67 410.82"/></clipPath><clipPath id="clip-path-15" transform="translate(-22.55 -14.63)"><polygon class="cls-1" points="249.72 404.16 249.72 402.78 274.07 388.72 274.08 390.1 249.72 404.16"/></clipPath><clipPath id="clip-path-16" transform="translate(-22.55 -14.63)"><polygon class="cls-1" points="249.72 406.82 249.72 405.44 274.07 391.38 274.08 392.76 249.72 406.82"/></clipPath><clipPath id="clip-path-17" transform="translate(-22.55 -14.63)"><polygon class="cls-1" points="249.72 409.48 249.72 408.09 274.07 394.03 274.08 395.42 249.72 409.48"/></clipPath><clipPath id="clip-path-18" transform="translate(-22.55 -14.63)"><polygon class="cls-1" points="171 389.67 171.07 363.97 193.43 376.88 193.35 402.57 171 389.67"/></clipPath><clipPath id="clip-path-19" transform="translate(-22.55 -14.63)"><polygon class="cls-1" points="211.37 412.51 211.44 386.82 233.81 399.74 233.74 425.43 211.37 412.51"/></clipPath><clipPath id="clip-path-20" transform="translate(-22.55 -14.63)"><polygon class="cls-1" points="292.54 390.28 292.58 375.84 423.55 451.46 423.51 465.9 292.54 390.28"/></clipPath></defs><title>Asset 2</title><g id="Layer_2" data-name="Layer 2"><g id="shadows"><g class="cls-2"><g class="cls-2"><g class="cls-3"><g class="cls-2"><path class="cls-4" d="M1143.28,218.67l-.09,32.61q0,.27,0,.54l.09-32.61q0-.27,0-.54" transform="translate(-22.55 -14.63)"/><path class="cls-5" d="M1143.27,219.21l-.09,32.61a20.94,20.94,0,0,1-.4,3.51l.09-32.61a20.94,20.94,0,0,0,.4-3.51" transform="translate(-22.55 -14.63)"/><path class="cls-6" d="M1142.87,222.73l-.09,32.61a22.26,22.26,0,0,1-1,3.45l.09-32.61a22.26,22.26,0,0,0,1-3.45" transform="translate(-22.55 -14.63)"/><path class="cls-7" d="M1141.88,226.17l-.09,32.61a24.79,24.79,0,0,1-1.63,3.48l.09-32.61a24.79,24.79,0,0,0,1.63-3.48" transform="translate(-22.55 -14.63)"/><path class="cls-8" d="M1140.25,229.65l-.09,32.61a28.85,28.85,0,0,1-2.46,3.66l.09-32.61a28.85,28.85,0,0,0,2.46-3.66" transform="translate(-22.55 -14.63)"/><path class="cls-9" d="M1137.78,233.31l-.09,32.61a35.26,35.26,0,0,1-3.8,4.08l.09-32.61a35.26,35.26,0,0,0,3.8-4.08" transform="translate(-22.55 -14.63)"/><path class="cls-10" d="M1134,237.39l-.09,32.61a47.41,47.41,0,0,1-7.75,5.74l.09-32.61a47.41,47.41,0,0,0,7.75-5.74" transform="translate(-22.55 -14.63)"/><path class="cls-11" d="M1126.24,243.13l-.09,32.61-.75.44.09-32.61.75-.44" transform="translate(-22.55 -14.63)"/></g></g></g><g class="cls-2"><g class="cls-12"><g class="cls-2"><path class="cls-13" d="M40.72,487l-.09,32.61c-12.07-7-18.11-16.12-18.08-25.26l.09-32.61c0,9.14,6,18.29,18.08,25.26" transform="translate(-22.55 -14.63)"/></g></g></g><polygon class="cls-14" points="1102.94 228.94 1102.85 261.55 395.25 672.76 395.35 640.15 1102.94 228.94"/><polygon class="cls-15" points="308.76 640.14 308.67 672.75 18.08 504.98 18.17 472.37 308.76 640.14"/><path class="cls-16" d="M1125.2,193.41c24,13.85,24.12,36.31.29,50.15L417.9,654.78c-23.83,13.85-62.6,13.84-86.59,0L40.72,487c-24-13.85-24.13-36.31-.3-50.15L748,25.64c23.82-13.85,62.6-13.84,86.59,0Z" transform="translate(-22.55 -14.63)"/><g class="cls-2"><g class="cls-17"><g class="cls-2"><path class="cls-11" d="M417.9,654.78l-.09,32.61a69.17,69.17,0,0,1-13.41,5.9l.09-32.61a69.17,69.17,0,0,0,13.41-5.9" transform="translate(-22.55 -14.63)"/><path class="cls-10" d="M404.48,660.68l-.09,32.61a88.63,88.63,0,0,1-11.59,2.88l.09-32.61a88.63,88.63,0,0,0,11.59-2.88" transform="translate(-22.55 -14.63)"/><path class="cls-9" d="M392.9,663.56l-.09,32.61c-2.57.46-5.17.83-7.81,1.09l.09-32.61c2.63-.26,5.24-.62,7.81-1.09" transform="translate(-22.55 -14.63)"/><path class="cls-8" d="M385.09,664.65,385,697.26q-3.37.34-6.79.45l.09-32.61q3.41-.12,6.79-.45" transform="translate(-22.55 -14.63)"/><path class="cls-7" d="M378.3,665.1l-.09,32.61q-3.13.11-6.27,0l.09-32.61q3.14.08,6.27,0" transform="translate(-22.55 -14.63)"/><path class="cls-6" d="M372,665.13l-.09,32.61q-3-.08-6-.32l.09-32.61q3,.25,6,.32" transform="translate(-22.55 -14.63)"/><path class="cls-5" d="M366,664.81l-.09,32.61q-3-.25-6-.67l.09-32.61q3,.42,6,.67" transform="translate(-22.55 -14.63)"/><path class="cls-4" d="M360,664.14l-.09,32.61q-3.07-.44-6.07-1.06l.09-32.61q3,.62,6.07,1.06" transform="translate(-22.55 -14.63)"/><path class="cls-18" d="M354,663.09l-.09,32.61q-3.25-.67-6.39-1.57l.09-32.61q3.13.89,6.39,1.57" transform="translate(-22.55 -14.63)"/><path class="cls-15" d="M347.58,661.52l-.09,32.61c-2.55-.73-5-1.57-7.44-2.51l.09-32.61c2.4.95,4.88,1.78,7.44,2.51" transform="translate(-22.55 -14.63)"/><path class="cls-13" d="M340.14,659l-.09,32.61a66.54,66.54,0,0,1-8.83-4.24l.09-32.61a66.54,66.54,0,0,0,8.83,4.24" transform="translate(-22.55 -14.63)"/></g></g></g></g><g id="body-dark"><g class="cls-2"><g class="cls-19"><path class="cls-20" d="M1123.49,192.09,834,25c-23.9-13.8-62.51-13.8-86.24,0L43,434.57c-23.74,13.79-23.6,36.16.29,50L332.71,651.64c23.9,13.8,62.51,13.8,86.24,0L1123.78,242c23.74-13.79,23.6-36.16-.29-50" transform="translate(-22.55 -14.63)"/></g></g></g><g id="camera-shound"><g class="cls-2"><g class="cls-21"><path class="cls-22" d="M957.94,137.53,905,107a6.34,6.34,0,0,0-5.75,0l-1,.55c-1.59.92-1.57,2.41,0,3.33l52.89,30.54a6.34,6.34,0,0,0,5.75,0l1-.55c1.59-.92,1.57-2.41,0-3.33m15.87,9.16a7.39,7.39,0,0,0-6.71,0c-1.85,1.07-1.84,2.81,0,3.89a7.39,7.39,0,0,0,6.71,0c1.85-1.07,1.84-2.81,0-3.89" transform="translate(-22.55 -14.63)"/></g></g></g><g id="menu" class="cls-23"><g class="cls-2"><g class="cls-24"><path class="cls-25" d="M277.4,569.58,186,516.84a4.22,4.22,0,0,0-3.83,0,1.17,1.17,0,0,0,0,2.22l91.35,52.74a4.22,4.22,0,0,0,3.83,0,1.17,1.17,0,0,0,0-2.22" transform="translate(-22.55 -14.63)"/></g></g></g><path class="cls-26" d="M116.38,512l-55-31.83s-7.17-6.14-7.17-12.75L55.34,444l29.29,11.5,30.21,13.46,9.32,9.32v38.23Z" transform="translate(-22.55 -14.63)"/><path class="cls-27" d="M116,496.64,67.09,466.39s-21.45-14.28-6.37-36.27a74.56,74.56,0,0,1,15-11.48l67.87-38.78,129.76-75.6L302,287.7l57.36,33.9,31,16.71Z" transform="translate(-22.55 -14.63)"/><polygon class="cls-28" points="143.03 449.68 85 416.17 90.01 413.54 147.72 446.99 143.03 449.68"/><polygon class="cls-28" points="203.58 417.19 145.54 383.68 150.55 381.05 208.26 414.49 203.58 417.19"/><polygon class="cls-28" points="264.22 383.44 206.18 349.93 211.19 347.3 268.91 380.75 264.22 383.44"/><polygon class="cls-28" points="319.12 351.68 261.08 318.17 266.09 315.55 323.8 348.99 319.12 351.68"/><polygon class="cls-28" points="266.09 315.55 331.84 304.54 336.15 307.08 272 318.97 266.09 315.55"/><polygon class="cls-28" points="278.59 322.76 344.34 311.75 348.65 314.3 284.5 326.19 278.59 322.76"/><polygon class="cls-28" points="290.59 329.98 356.34 318.97 360.65 321.52 296.5 333.41 290.59 329.98"/><polygon class="cls-29" points="79.13 421.37 115.83 400.8 79.23 379.55 42.47 400.46 79.13 421.37"/><polygon class="cls-30" points="115.86 400.79 115.19 419.18 108.96 422.29 108.96 404.66 115.86 400.79"/><polygon class="cls-30" points="85.86 417.6 85.27 435.38 79.04 438.5 79.14 421.37 85.86 417.6"/><polygon class="cls-29" points="51.27 431.35 33.7 421.39 51.27 411.43 51.27 431.35"/><polygon class="cls-31" points="49.13 404.27 48.73 420.57 42.49 416.83 42.59 400.46 49.13 404.27"/><polygon class="cls-29" points="79.04 438.5 115.66 418.56 132.49 428.53 97.59 449.09 79.04 438.5"/><polygon class="cls-31" points="42.49 416.83 97.6 449.15 97.6 469.04 42.49 437.96 42.49 416.83"/><path class="cls-32" d="M119.67,483.67" transform="translate(-22.55 -14.63)"/><polygon class="cls-30" points="132.02 449.09 132.02 428.53 97.6 449.09 97.6 469.04 132.02 449.09"/><polygon class="cls-33" points="48.73 420.57 79.04 438.5 79.14 421.37 49.13 404.27 48.73 420.57"/><polygon class="cls-31" points="33.7 421.39 33.7 432.12 51.3 442.39 51.3 431.35 33.7 421.39"/><polygon class="cls-33" points="85.86 417.6 108.96 404.66 108.96 422.29 85.27 435.05 85.86 417.6"/><path class="cls-31" d="M46.32,432.23" transform="translate(-22.55 -14.63)"/><g class="cls-2"><g class="cls-34"><path class="cls-35" d="M105,478.57a10,10,0,0,1-4.56-7.89c0-2.9,2.06-4.07,4.59-2.61a10,10,0,0,1,4.56,7.89c0,2.91-2.06,4.07-4.59,2.61m0-15c-4.69-2.71-8.5-.53-8.52,4.85s3.78,12,8.46,14.66,8.5.54,8.52-4.85-3.77-12-8.46-14.66" transform="translate(-22.55 -14.63)"/><path class="cls-36" d="M105,476.69a.88.88,0,0,1-.4-.69c0-.26.18-.36.4-.23a.88.88,0,0,1,.4.69c0,.26-.18.36-.4.23m-1.87-2a.89.89,0,0,1-.4-.69c0-.26.18-.37.4-.24a.89.89,0,0,1,.4.7c0,.25-.18.36-.4.23m3.74,2.16a.9.9,0,0,1-.4-.69c0-.26.19-.36.4-.24a.91.91,0,0,1,.41.71c0,.25-.19.36-.41.23m-4.46-4.56a.88.88,0,0,1-.4-.69c0-.26.18-.36.4-.23a.88.88,0,0,1,.4.69c0,.26-.18.36-.4.23m5.2,3a.89.89,0,0,1-.4-.69c0-.26.19-.36.4-.23a.89.89,0,0,1,.41.7c0,.26-.19.36-.41.23M105,475a3.23,3.23,0,0,1-1.46-2.54c0-.93.66-1.31,1.47-.84a3.23,3.23,0,0,1,1.46,2.54c0,.93-.66,1.31-1.47.84m-2-4.1a.88.88,0,0,1-.4-.69c0-.26.18-.36.4-.23a.88.88,0,0,1,.4.69c0,.26-.18.36-.4.23m3.74,2.16a.88.88,0,0,1-.4-.69c0-.26.18-.36.4-.23a.88.88,0,0,1,.4.69c0,.26-.18.36-.4.23M105,470.88a.88.88,0,0,1-.4-.69c0-.26.18-.36.4-.23a.88.88,0,0,1,.4.69c0,.26-.18.36-.4.23m0-2.82c-2.52-1.46-4.58-.28-4.59,2.61a10,10,0,0,0,4.56,7.89c2.53,1.46,4.58.29,4.59-2.61a10,10,0,0,0-4.56-7.89" transform="translate(-22.55 -14.63)"/><path class="cls-37" d="M105,471.63c-.81-.47-1.47-.09-1.47.84A3.23,3.23,0,0,0,105,475c.81.47,1.47.09,1.47-.84a3.23,3.23,0,0,0-1.46-2.54" transform="translate(-22.55 -14.63)"/><path class="cls-37" d="M105,470c-.22-.13-.4,0-.4.23a.88.88,0,0,0,.4.69c.22.13.4,0,.4-.23a.88.88,0,0,0-.4-.69" transform="translate(-22.55 -14.63)"/><path class="cls-37" d="M102.4,471.36c-.22-.13-.4,0-.4.23a.88.88,0,0,0,.4.69c.22.13.4,0,.4-.23a.88.88,0,0,0-.4-.69" transform="translate(-22.55 -14.63)"/><path class="cls-37" d="M105,475.76c-.22-.13-.4,0-.4.23a.88.88,0,0,0,.4.69c.22.13.4,0,.4-.23a.88.88,0,0,0-.4-.69" transform="translate(-22.55 -14.63)"/><path class="cls-37" d="M107.61,474.36c-.22-.13-.4,0-.4.23a.89.89,0,0,0,.4.69c.22.13.41,0,.41-.23a.89.89,0,0,0-.41-.7" transform="translate(-22.55 -14.63)"/><path class="cls-37" d="M103.13,473.75c-.22-.13-.4,0-.4.24a.89.89,0,0,0,.4.69c.22.13.4,0,.4-.23a.89.89,0,0,0-.4-.7" transform="translate(-22.55 -14.63)"/><path class="cls-37" d="M106.87,475.91c-.22-.13-.4,0-.4.24a.9.9,0,0,0,.4.69c.22.13.41,0,.41-.23a.91.91,0,0,0-.41-.71" transform="translate(-22.55 -14.63)"/><path class="cls-37" d="M103,470c-.22-.13-.4,0-.4.23a.88.88,0,0,0,.4.69c.22.13.4,0,.4-.23a.88.88,0,0,0-.4-.69" transform="translate(-22.55 -14.63)"/><path class="cls-37" d="M106.7,472.15c-.22-.13-.4,0-.4.23a.88.88,0,0,0,.4.69c.22.13.4,0,.4-.23a.88.88,0,0,0-.4-.69" transform="translate(-22.55 -14.63)"/></g></g><g class="cls-2"><g class="cls-38"><path class="cls-39" d="M127.2,467.49c-.72.41-1.29.08-1.29-.73a2.82,2.82,0,0,1,1.29-2.22c.71-.41,1.29-.08,1.29.73a2.82,2.82,0,0,1-1.28,2.22m4.11-1.84c-1,.55-1.74.11-1.74-1a3.82,3.82,0,0,1,1.73-3c1-.56,1.75-.11,1.75,1a3.82,3.82,0,0,1-1.74,3m3.45-6.63-11.46,6.62v5.28l11.48-6.63V459" transform="translate(-22.55 -14.63)"/><path class="cls-40" d="M127.2,466.85a.47.47,0,0,1-.61,0c-.23-.25-.15-.82.18-1.27a1.39,1.39,0,0,1,.42-.39.47.47,0,0,1,.61,0c.23.25.15.82-.18,1.27a1.39,1.39,0,0,1-.42.39m0-2.31a2.82,2.82,0,0,0-1.29,2.22c0,.81.58,1.14,1.29.73a2.82,2.82,0,0,0,1.28-2.22c0-.81-.58-1.14-1.29-.73" transform="translate(-22.55 -14.63)"/><path class="cls-40" d="M131.3,464.76c-.53.31-1,.06-1-.56a2.13,2.13,0,0,1,1-1.67c.54-.31,1-.06,1,.55a2.13,2.13,0,0,1-1,1.68m0-3.12a3.82,3.82,0,0,0-1.73,3c0,1.11.78,1.55,1.74,1a3.82,3.82,0,0,0,1.74-3c0-1.11-.78-1.55-1.75-1" transform="translate(-22.55 -14.63)"/><path class="cls-41" d="M131.3,462.53a2.13,2.13,0,0,0-1,1.67c0,.62.44.86,1,.56a2.13,2.13,0,0,0,1-1.68c0-.62-.44-.86-1-.55" transform="translate(-22.55 -14.63)"/><path class="cls-41" d="M127.19,465.18a1.39,1.39,0,0,0-.42.39c-.33.46-.41,1-.18,1.27a.47.47,0,0,0,.61,0,1.39,1.39,0,0,0,.42-.39c.33-.46.41-1,.18-1.27a.47.47,0,0,0-.61,0" transform="translate(-22.55 -14.63)"/></g></g><g class="cls-2"><g class="cls-42"><path class="cls-39" d="M147.81,456c-.71.41-1.29.07-1.29-.74a2.82,2.82,0,0,1,1.28-2.22c.71-.41,1.29-.08,1.29.73a2.83,2.83,0,0,1-1.28,2.22m-4.11,2.89c-1,.56-1.75.11-1.75-1a3.82,3.82,0,0,1,1.74-3c1-.56,1.75-.11,1.75,1a3.82,3.82,0,0,1-1.74,3m8-9.26-11.46,6.62v5.27l11.48-6.63,0-5.26" transform="translate(-22.55 -14.63)"/><path class="cls-40" d="M147.81,455.37a.59.59,0,0,1-.42.09c-.34-.08-.42-.55-.19-1.07a1.56,1.56,0,0,1,.6-.71.59.59,0,0,1,.42-.09c.33.07.42.55.19,1.07a1.56,1.56,0,0,1-.6.71m0-2.32a2.82,2.82,0,0,0-1.28,2.22c0,.81.58,1.15,1.29.74a2.83,2.83,0,0,0,1.28-2.22c0-.81-.58-1.14-1.29-.73" transform="translate(-22.55 -14.63)"/><path class="cls-40" d="M143.7,458c-.54.31-1,.06-1-.55a2.13,2.13,0,0,1,1-1.68c.54-.31,1-.06,1,.55a2.13,2.13,0,0,1-1,1.68m0-3.11a3.82,3.82,0,0,0-1.74,3c0,1.11.78,1.55,1.75,1a3.82,3.82,0,0,0,1.74-3c0-1.1-.78-1.55-1.75-1" transform="translate(-22.55 -14.63)"/><path class="cls-41" d="M143.7,455.78a2.13,2.13,0,0,0-1,1.68c0,.62.44.86,1,.55a2.13,2.13,0,0,0,1-1.68c0-.62-.44-.86-1-.55" transform="translate(-22.55 -14.63)"/><path class="cls-41" d="M147.81,453.68a1.56,1.56,0,0,0-.6.71c-.23.51-.15,1,.19,1.07a.59.59,0,0,0,.42-.09,1.56,1.56,0,0,0,.6-.71c.23-.51.14-1-.19-1.07a.59.59,0,0,0-.42.09" transform="translate(-22.55 -14.63)"/></g></g><polygon class="cls-43" points="49.18 420.32 54.49 423.15 66.83 414.78 60.15 411.43 49.18 420.32"/><polygon class="cls-43" points="61.64 427.55 66.11 429.95 78.45 421.38 74.03 419.16 61.64 427.55"/><polygon class="cls-43" points="87.08 432.27 95.62 427.62 107.57 411.84 107.57 407.22 103.07 409.68 87.08 432.27"/><rect class="cls-44" x="206.54" y="370.5" width="35.55" height="1.79"/><g class="cls-2"><g class="cls-45"><path class="cls-35" d="M70.46,460.4a9.21,9.21,0,0,1-4.18-7.24c0-2.66,1.89-3.73,4.21-2.39A9.21,9.21,0,0,1,74.67,458c0,2.66-1.89,3.74-4.21,2.4m0-13.77c-4.3-2.48-7.8-.49-7.81,4.45a17.11,17.11,0,0,0,7.76,13.45c4.3,2.48,7.8.49,7.81-4.45a17.11,17.11,0,0,0-7.76-13.45" transform="translate(-22.55 -14.63)"/><path class="cls-36" d="M70.47,458.67a.81.81,0,0,1-.37-.64c0-.23.17-.33.37-.21a.81.81,0,0,1,.37.64c0,.23-.17.33-.37.21m-1.72-1.84a.81.81,0,0,1-.37-.64c0-.23.17-.32.37-.2a.8.8,0,0,1,.37.63c0,.23-.17.33-.37.21m3.43,2a.81.81,0,0,1-.37-.64c0-.23.17-.32.37-.2a.8.8,0,0,1,.37.63c0,.23-.17.33-.37.21m-4.1-4.18a.81.81,0,0,1-.37-.64c0-.23.17-.33.37-.21a.81.81,0,0,1,.37.64c0,.23-.17.33-.37.21m4.78,2.76a.8.8,0,0,1-.36-.64c0-.23.16-.33.37-.22a.81.81,0,0,1,.37.64c0,.23-.17.33-.37.21m-2.39-.26a3,3,0,0,1-1.34-2.33c0-.85.6-1.2,1.35-.77a3,3,0,0,1,1.34,2.33c0,.86-.61,1.2-1.35.77m-1.88-3.76a.81.81,0,0,1-.37-.64c0-.23.17-.33.37-.21a.81.81,0,0,1,.37.64c0,.23-.17.33-.37.21m3.43,2a.81.81,0,0,1-.37-.64c0-.23.17-.33.37-.21a.81.81,0,0,1,.37.64c0,.23-.17.33-.37.21m-1.55-2a.81.81,0,0,1-.37-.64c0-.23.17-.33.37-.21a.81.81,0,0,1,.37.64c0,.23-.17.33-.37.21m0-2.58c-2.32-1.34-4.2-.26-4.21,2.39a9.21,9.21,0,0,0,4.18,7.24c2.32,1.34,4.2.26,4.21-2.4a9.21,9.21,0,0,0-4.18-7.23" transform="translate(-22.55 -14.63)"/><path class="cls-37" d="M70.48,454c-.75-.43-1.35-.08-1.35.77a3,3,0,0,0,1.34,2.33c.74.43,1.35.09,1.35-.77A3,3,0,0,0,70.48,454" transform="translate(-22.55 -14.63)"/><path class="cls-37" d="M70.49,452.49c-.2-.12-.37,0-.37.21a.81.81,0,0,0,.37.64c.2.12.37,0,.37-.21a.81.81,0,0,0-.37-.64" transform="translate(-22.55 -14.63)"/><path class="cls-37" d="M68.09,453.78c-.2-.12-.37,0-.37.21a.81.81,0,0,0,.37.64c.2.12.37,0,.37-.21a.81.81,0,0,0-.37-.64" transform="translate(-22.55 -14.63)"/><path class="cls-37" d="M70.47,457.82c-.2-.12-.37,0-.37.21a.81.81,0,0,0,.37.64c.2.12.37,0,.37-.21a.81.81,0,0,0-.37-.64" transform="translate(-22.55 -14.63)"/><path class="cls-37" d="M72.87,456.53c-.2-.12-.36,0-.37.22a.8.8,0,0,0,.36.64c.2.12.37,0,.37-.21a.81.81,0,0,0-.37-.64" transform="translate(-22.55 -14.63)"/><path class="cls-37" d="M68.76,456c-.2-.12-.37,0-.37.2a.81.81,0,0,0,.37.64c.2.12.37,0,.37-.21a.8.8,0,0,0-.37-.63" transform="translate(-22.55 -14.63)"/><path class="cls-37" d="M72.19,458c-.2-.12-.37,0-.37.2a.81.81,0,0,0,.37.64c.2.12.37,0,.37-.21a.8.8,0,0,0-.37-.63" transform="translate(-22.55 -14.63)"/><path class="cls-37" d="M68.6,452.52c-.2-.12-.37,0-.37.21a.81.81,0,0,0,.37.64c.2.12.37,0,.37-.21a.81.81,0,0,0-.37-.64" transform="translate(-22.55 -14.63)"/><path class="cls-37" d="M72,454.5c-.2-.12-.37,0-.37.21a.81.81,0,0,0,.37.64c.2.12.37,0,.37-.21a.81.81,0,0,0-.37-.64" transform="translate(-22.55 -14.63)"/></g></g><g class="cls-2"><g class="cls-46"><path class="cls-35" d="M264.12,397.28a13.22,13.22,0,0,1-6-10.39c0-3.81,2.71-5.36,6-3.43a13.22,13.22,0,0,1,6,10.38c0,3.82-2.71,5.36-6,3.45m.06-19.76C258,374,253,376.82,253,383.91s5,15.74,11.14,19.3,11.2.7,11.22-6.39-5-15.74-11.14-19.3" transform="translate(-22.55 -14.63)"/><path class="cls-36" d="M264.13,394.8a1.16,1.16,0,0,1-.53-.91c0-.34.24-.47.53-.3a1.16,1.16,0,0,1,.53.91c0,.34-.24.47-.53.3m-2.46-2.64a1.16,1.16,0,0,1-.53-.91c0-.34.24-.47.53-.3a1.16,1.16,0,0,1,.53.91c0,.34-.24.47-.53.3m4.93,2.85a1.16,1.16,0,0,1-.53-.91c0-.34.24-.47.53-.3a1.16,1.16,0,0,1,.53.91c0,.34-.24.47-.53.3m-5.89-6a1.16,1.16,0,0,1-.53-.91c0-.34.24-.47.53-.3a1.16,1.16,0,0,1,.53.91c0,.34-.24.47-.53.3m6.86,4A1.16,1.16,0,0,1,267,392c0-.34.24-.47.53-.3a1.16,1.16,0,0,1,.53.91c0,.34-.24.47-.53.3m-3.43-.37a4.23,4.23,0,0,1-1.93-3.34c0-1.23.87-1.73,1.94-1.11a4.26,4.26,0,0,1,1.93,3.34c0,1.23-.87,1.72-1.94,1.11m-2.69-5.4a1.16,1.16,0,0,1-.53-.91c0-.34.24-.47.53-.3a1.16,1.16,0,0,1,.53.91c0,.34-.24.47-.53.3m4.93,2.85a1.16,1.16,0,0,1-.53-.91c0-.34.24-.47.53-.3a1.16,1.16,0,0,1,.53.91c0,.34-.24.47-.53.3m-2.22-2.89a1.16,1.16,0,0,1-.53-.91c0-.34.24-.47.53-.3a1.16,1.16,0,0,1,.53.91c0,.34-.24.47-.53.3m0-3.7c-3.33-1.92-6-.38-6,3.43a13.22,13.22,0,0,0,6,10.39c3.32,1.92,6,.38,6-3.45a13.22,13.22,0,0,0-6-10.38" transform="translate(-22.55 -14.63)"/><path class="cls-37" d="M264.15,388.14c-1.07-.62-1.94-.12-1.94,1.11a4.23,4.23,0,0,0,1.93,3.34c1.07.62,1.94.13,1.94-1.11a4.26,4.26,0,0,0-1.93-3.34" transform="translate(-22.55 -14.63)"/><path class="cls-37" d="M264.15,385.94c-.29-.17-.53,0-.53.3a1.16,1.16,0,0,0,.53.91c.29.17.53,0,.53-.3a1.16,1.16,0,0,0-.53-.91" transform="translate(-22.55 -14.63)"/><path class="cls-37" d="M260.71,387.78c-.29-.17-.53,0-.53.3a1.16,1.16,0,0,0,.53.91c.29.17.53,0,.53-.3a1.16,1.16,0,0,0-.53-.91" transform="translate(-22.55 -14.63)"/><path class="cls-37" d="M264.13,393.58c-.29-.17-.53,0-.53.3a1.16,1.16,0,0,0,.53.91c.29.17.53,0,.53-.3a1.16,1.16,0,0,0-.53-.91" transform="translate(-22.55 -14.63)"/><path class="cls-37" d="M267.57,391.74c-.29-.17-.53,0-.53.3a1.16,1.16,0,0,0,.53.91c.29.17.53,0,.53-.3a1.16,1.16,0,0,0-.53-.91" transform="translate(-22.55 -14.63)"/><path class="cls-37" d="M261.67,390.94c-.29-.17-.53,0-.53.3a1.16,1.16,0,0,0,.53.91c.29.17.53,0,.53-.3a1.16,1.16,0,0,0-.53-.91" transform="translate(-22.55 -14.63)"/><path class="cls-37" d="M266.6,393.78c-.29-.17-.53,0-.53.3a1.16,1.16,0,0,0,.53.91c.29.17.53,0,.53-.3a1.16,1.16,0,0,0-.53-.91" transform="translate(-22.55 -14.63)"/><path class="cls-37" d="M261.45,386c-.29-.17-.53,0-.53.3a1.16,1.16,0,0,0,.53.91c.29.17.53,0,.53-.3a1.16,1.16,0,0,0-.53-.91" transform="translate(-22.55 -14.63)"/><path class="cls-37" d="M266.38,388.82c-.29-.17-.53,0-.53.3a1.16,1.16,0,0,0,.53.91c.29.17.53,0,.53-.3a1.16,1.16,0,0,0-.53-.91" transform="translate(-22.55 -14.63)"/></g></g><polygon class="cls-47" points="198.56 368.64 218.07 379.9 257.07 357.38 237.57 346.12 198.56 368.64"/><polygon class="cls-48" points="203.62 365.83 203.62 343.6 198.56 346.55 198.56 368.64 203.62 365.83"/><polygon class="cls-48" points="237.57 346.26 237.57 324.02 232.51 326.97 232.51 349.07 237.57 346.26"/><polygon class="cls-48" points="203.57 349.56 237.58 329.95 232.5 327.02 198.61 346.57 203.57 349.56"/><polygon class="cls-47" points="179.06 335.36 198.56 346.62 237.57 324.1 218.07 312.84 179.06 335.36"/><polygon class="cls-49" points="179.06 357.38 184.12 360.31 184.12 338.31 179.06 335.36 179.06 357.38"/><polygon class="cls-49" points="198.6 350.57 198.56 346.62 181.29 336.66 181.09 340.45 198.6 350.57"/><polygon class="cls-33" points="184.12 360.31 198.56 368.64 198.56 350.57 184.12 342.2 184.12 360.31"/><polygon class="cls-49" points="193.5 365.67 198.56 368.59 198.56 346.59 193.5 343.65 193.5 365.67"/><polygon class="cls-33" points="203.68 365.83 232.57 349.07 232.57 332.87 203.63 349.56 203.68 365.83"/><polygon class="cls-50" points="218.07 379.9 218.07 402.43 257.07 379.9 257.07 357.38 218.07 379.9"/><polyline class="cls-49" points="218.07 402.43 140.05 357.38 140.05 334.86 218.07 379.9"/><polygon class="cls-51" points="140.05 334.86 179.06 312.34 198.61 324.07 179.06 335.36 179.06 357.38 140.05 334.86"/><polygon class="cls-52" points="159.66 346.18 179.06 335.36 179.06 312.34 140.05 334.86 159.66 346.18"/><polygon class="cls-47" points="159.66 346.18 179.06 357.38 179.06 335.36 159.66 346.18"/><polygon class="cls-53" points="179.06 335.36 179.06 312.34 198.61 324.07 179.06 335.36"/><g class="cls-2"><g class="cls-54"><path class="cls-39" d="M246.73,400.33c-1.15.66-2.08.13-2.08-1.19a4.56,4.56,0,0,1,2.07-3.58c1.14-.66,2.08-.13,2.08,1.19a4.56,4.56,0,0,1-2.07,3.58m0-6.81a8.46,8.46,0,0,0-3.84,6.65c0,2.44,1.74,3.43,3.86,2.2a8.46,8.46,0,0,0,3.84-6.65c0-2.44-1.74-3.43-3.86-2.2" transform="translate(-22.55 -14.63)"/><path class="cls-55" d="M246.72,395.56a4.56,4.56,0,0,0-2.07,3.58c0,1.32.93,1.85,2.08,1.19a4.56,4.56,0,0,0,2.07-3.58c0-1.31-.94-1.85-2.08-1.19" transform="translate(-22.55 -14.63)"/></g></g><g class="cls-2"><g class="cls-56"><path class="cls-39" d="M274.14,384.34c-1.15.66-2.08.13-2.08-1.19a4.55,4.55,0,0,1,2.07-3.58c1.14-.66,2.08-.13,2.08,1.19a4.57,4.57,0,0,1-2.07,3.58m0-6.81a8.46,8.46,0,0,0-3.84,6.65c0,2.44,1.74,3.43,3.86,2.2a8.46,8.46,0,0,0,3.84-6.65c0-2.44-1.74-3.43-3.86-2.2" transform="translate(-22.55 -14.63)"/><path class="cls-55" d="M274.13,379.57a4.55,4.55,0,0,0-2.07,3.58c0,1.31.93,1.85,2.08,1.19a4.57,4.57,0,0,0,2.07-3.58c0-1.32-.94-1.85-2.08-1.19" transform="translate(-22.55 -14.63)"/></g></g><g class="cls-2"><g class="cls-57"><polyline class="cls-58" points="252.57 372.75 226.1 388.04 226.12 396.19 252.59 380.9 252.57 372.75"/></g></g><g class="cls-2"><g class="cls-59"><polyline class="cls-44" points="251.52 374.09 227.17 388.15 227.17 389.53 251.53 375.47 251.52 374.09"/></g></g><g class="cls-2"><g class="cls-60"><polyline class="cls-44" points="251.52 376.75 227.17 390.81 227.17 392.19 251.53 378.13 251.52 376.75"/></g></g><g class="cls-2"><g class="cls-61"><polyline class="cls-44" points="251.52 379.4 227.17 393.46 227.17 394.85 251.53 380.79 251.52 379.4"/></g></g><g class="cls-2"><g class="cls-62"><path class="cls-35" d="M182.19,390.19a13.22,13.22,0,0,1-6-10.39c0-3.82,2.71-5.36,6-3.44a13.22,13.22,0,0,1,6,10.39c0,3.81-2.71,5.36-6,3.44m.06-19.76c-6.17-3.56-11.2-.7-11.22,6.39s5,15.74,11.14,19.3,11.2.7,11.22-6.39-5-15.74-11.14-19.3" transform="translate(-22.55 -14.63)"/><path class="cls-36" d="M182.2,387.71a1.16,1.16,0,0,1-.53-.91c0-.34.24-.47.53-.3a1.16,1.16,0,0,1,.53.91c0,.34-.24.47-.53.3m-2.46-2.64a1.19,1.19,0,0,1-.53-.92c0-.34.24-.48.54-.31a1.17,1.17,0,0,1,.53.92c0,.33-.24.47-.53.3m4.93,2.85a1.17,1.17,0,0,1-.53-.91c0-.34.24-.48.53-.31a1.17,1.17,0,0,1,.53.92c0,.33-.24.47-.53.3m-5.89-6a1.16,1.16,0,0,1-.53-.91c0-.34.24-.47.53-.3a1.16,1.16,0,0,1,.53.91c0,.34-.24.47-.53.3m6.86,4a1.16,1.16,0,0,1-.53-.91c0-.34.24-.47.53-.3a1.16,1.16,0,0,1,.53.91c0,.34-.24.47-.53.3m-3.43-.37a4.25,4.25,0,0,1-1.93-3.34c0-1.23.87-1.73,1.94-1.11a4.26,4.26,0,0,1,1.93,3.34c0,1.23-.87,1.72-1.94,1.11m-2.69-5.4a1.16,1.16,0,0,1-.53-.91c0-.34.24-.47.53-.3a1.16,1.16,0,0,1,.53.91c0,.34-.24.47-.53.3m4.93,2.85a1.16,1.16,0,0,1-.53-.91c0-.34.24-.47.53-.3a1.16,1.16,0,0,1,.53.91c0,.34-.24.47-.53.3m-2.22-2.89a1.16,1.16,0,0,1-.53-.91c0-.34.24-.47.53-.3a1.16,1.16,0,0,1,.53.91c0,.34-.24.47-.53.3m0-3.7c-3.33-1.92-6-.38-6,3.44a13.22,13.22,0,0,0,6,10.39c3.32,1.92,6,.38,6-3.44a13.22,13.22,0,0,0-6-10.39" transform="translate(-22.55 -14.63)"/><path class="cls-37" d="M182.22,381.05c-1.07-.62-1.94-.12-1.94,1.11a4.25,4.25,0,0,0,1.93,3.34c1.07.62,1.94.12,1.94-1.11a4.26,4.26,0,0,0-1.93-3.34" transform="translate(-22.55 -14.63)"/><path class="cls-37" d="M182.22,378.84c-.29-.17-.53,0-.53.3a1.16,1.16,0,0,0,.53.91c.29.17.53,0,.53-.3a1.16,1.16,0,0,0-.53-.91" transform="translate(-22.55 -14.63)"/><path class="cls-37" d="M178.79,380.69c-.29-.17-.53,0-.53.3a1.16,1.16,0,0,0,.53.91c.29.17.53,0,.53-.3a1.16,1.16,0,0,0-.53-.91" transform="translate(-22.55 -14.63)"/><path class="cls-37" d="M182.2,386.49c-.29-.17-.53,0-.53.3a1.16,1.16,0,0,0,.53.91c.29.17.53,0,.53-.3a1.16,1.16,0,0,0-.53-.91" transform="translate(-22.55 -14.63)"/><path class="cls-37" d="M185.64,384.65c-.29-.17-.53,0-.53.3a1.16,1.16,0,0,0,.53.91c.29.17.53,0,.53-.3a1.16,1.16,0,0,0-.53-.91" transform="translate(-22.55 -14.63)"/><path class="cls-37" d="M179.74,383.84c-.29-.17-.54,0-.54.31a1.19,1.19,0,0,0,.53.92c.29.17.53,0,.53-.3a1.17,1.17,0,0,0-.53-.92" transform="translate(-22.55 -14.63)"/><path class="cls-37" d="M184.67,386.69c-.29-.17-.53,0-.53.31a1.17,1.17,0,0,0,.53.91c.29.17.53,0,.53-.3a1.17,1.17,0,0,0-.53-.92" transform="translate(-22.55 -14.63)"/><path class="cls-37" d="M179.52,378.88c-.29-.17-.53,0-.53.3a1.16,1.16,0,0,0,.53.91c.29.17.53,0,.53-.3a1.16,1.16,0,0,0-.53-.91" transform="translate(-22.55 -14.63)"/><path class="cls-37" d="M184.45,381.73c-.29-.17-.53,0-.53.3a1.16,1.16,0,0,0,.53.91c.29.17.53,0,.53-.3a1.16,1.16,0,0,0-.53-.91" transform="translate(-22.55 -14.63)"/></g></g><g class="cls-2"><g class="cls-63"><path class="cls-35" d="M222.57,413a13.22,13.22,0,0,1-6-10.39c0-3.81,2.71-5.36,6-3.44a13.22,13.22,0,0,1,6,10.39c0,3.82-2.71,5.36-6,3.44m.06-19.76c-6.17-3.56-11.2-.7-11.22,6.39s5,15.74,11.14,19.3,11.2.71,11.22-6.39-5-15.74-11.15-19.3" transform="translate(-22.55 -14.63)"/><path class="cls-36" d="M222.57,410.55a1.17,1.17,0,0,1-.53-.91c0-.34.24-.47.53-.3a1.17,1.17,0,0,1,.53.92c0,.34-.24.47-.54.3m-2.46-2.64a1.16,1.16,0,0,1-.53-.91c0-.34.24-.47.53-.3a1.17,1.17,0,0,1,.53.92c0,.34-.24.47-.54.3m4.94,2.85a1.17,1.17,0,0,1-.53-.92c0-.34.24-.47.54-.3a1.17,1.17,0,0,1,.53.91c0,.34-.24.47-.53.3m-5.89-6a1.16,1.16,0,0,1-.53-.91c0-.34.24-.47.53-.3a1.16,1.16,0,0,1,.53.91c0,.34-.24.47-.53.3m6.86,4a1.16,1.16,0,0,1-.53-.91c0-.34.24-.47.53-.3a1.16,1.16,0,0,1,.53.91c0,.34-.24.47-.53.3m-3.44-.37a4.23,4.23,0,0,1-1.92-3.34c0-1.23.87-1.73,1.93-1.11a4.25,4.25,0,0,1,1.93,3.34c0,1.23-.87,1.73-1.94,1.11M219.89,403a1.19,1.19,0,0,1-.53-.92.33.33,0,0,1,.53-.3,1.19,1.19,0,0,1,.53.92c0,.34-.24.48-.54.31m4.94,2.85a1.19,1.19,0,0,1-.53-.93c0-.33.24-.47.54-.3a1.18,1.18,0,0,1,.53.91c0,.34-.24.48-.53.31m-2.23-2.89a1.19,1.19,0,0,1-.53-.92.33.33,0,0,1,.53-.3,1.19,1.19,0,0,1,.53.92c0,.34-.24.48-.54.31m0-3.7c-3.32-1.92-6-.38-6,3.44a13.22,13.22,0,0,0,6,10.39c3.33,1.92,6,.38,6-3.44a13.22,13.22,0,0,0-6-10.39" transform="translate(-22.55 -14.63)"/><path class="cls-37" d="M222.59,403.9c-1.07-.62-1.93-.12-1.93,1.11a4.23,4.23,0,0,0,1.92,3.34c1.07.62,1.94.13,1.94-1.11a4.25,4.25,0,0,0-1.93-3.34" transform="translate(-22.55 -14.63)"/><path class="cls-37" d="M222.6,401.69a.33.33,0,0,0-.53.3,1.19,1.19,0,0,0,.53.92c.29.17.54,0,.54-.31a1.19,1.19,0,0,0-.53-.92" transform="translate(-22.55 -14.63)"/><path class="cls-37" d="M219.17,403.54c-.29-.17-.53,0-.53.3a1.16,1.16,0,0,0,.53.91c.29.17.53,0,.53-.3a1.16,1.16,0,0,0-.53-.91" transform="translate(-22.55 -14.63)"/><path class="cls-37" d="M222.58,409.34c-.29-.17-.53,0-.53.3a1.17,1.17,0,0,0,.53.91c.29.17.54,0,.54-.3a1.17,1.17,0,0,0-.53-.92" transform="translate(-22.55 -14.63)"/><path class="cls-37" d="M226,407.5c-.29-.17-.53,0-.53.3a1.16,1.16,0,0,0,.53.91c.29.17.53,0,.53-.3a1.16,1.16,0,0,0-.53-.91" transform="translate(-22.55 -14.63)"/><path class="cls-37" d="M220.12,406.7c-.29-.17-.53,0-.53.3a1.16,1.16,0,0,0,.53.91c.29.17.54,0,.54-.3a1.17,1.17,0,0,0-.53-.92" transform="translate(-22.55 -14.63)"/><path class="cls-37" d="M225.05,409.55c-.29-.17-.54,0-.54.3a1.17,1.17,0,0,0,.53.92c.29.17.53,0,.53-.3a1.17,1.17,0,0,0-.53-.91" transform="translate(-22.55 -14.63)"/><path class="cls-37" d="M219.89,401.73a.33.33,0,0,0-.53.3,1.19,1.19,0,0,0,.53.92c.29.17.54,0,.54-.31a1.19,1.19,0,0,0-.53-.92" transform="translate(-22.55 -14.63)"/><path class="cls-37" d="M224.83,404.58c-.29-.17-.54,0-.54.3a1.19,1.19,0,0,0,.53.93c.29.17.53,0,.53-.31a1.18,1.18,0,0,0-.53-.91" transform="translate(-22.55 -14.63)"/></g></g><polygon class="cls-43" points="205.63 363.01 216.33 357.38 222.23 340.06 212.45 345.75 205.63 363.01"/><polygon class="cls-43" points="227.82 350.93 231.74 339.6 231.74 344.68 227.82 350.93"/><polygon class="cls-43" points="184.91 359.98 192.74 348.43 192.74 355.42 188.84 361.93 184.91 359.98"/><path class="cls-64" d="M115.94,496.75l.26,15.15L345.38,644s36,15,73-6l217-125V497l-238,104-12,12-165-93-70-22Z" transform="translate(-22.55 -14.63)"/><path class="cls-65" d="M329.44,619.75l-214-123,141.58-83-.25,34-.33,43,175,101,116-67-.33-77.33,87.33,49.33-203,118S377.44,650.75,329.44,619.75Z" transform="translate(-22.55 -14.63)"/><path class="cls-65" d="M519.82,508.37l-214-123,141.58-83-.25,34-.33,43,175,101,116-67L737.49,336l87.33,49.33L626.69,500.54l-4.87,2.83S567.82,539.37,519.82,508.37Z" transform="translate(-22.55 -14.63)"/><path class="cls-65" d="M516,410.72l-214-123,141.58-83-.25,34-.33,43,175,101,116-67-.33-77.33L821,287.72,622.86,402.89,618,405.72S564,441.72,516,410.72Z" transform="translate(-22.55 -14.63)"/><polygon class="cls-65" points="610.47 482.93 278.3 273.75 610.75 79.46 958.86 280.02 610.47 482.93"/><polygon class="cls-64" points="525.3 548.79 960 299.39 960 279.36 525.3 532.4 525.3 548.79"/><polygon class="cls-66" points="234.58 376.31 408.58 477.31 524.58 409.31 350.58 308.31 234.58 376.31"/><polygon class="cls-67" points="234.53 376.17 233.53 476.17 408.53 577.17 408.53 477.17 234.53 376.17"/><polygon class="cls-68" points="524.58 510.31 408.58 577.3 408.58 477.31 524.58 409.31 524.58 510.31"/><polygon class="cls-69" points="386.08 564.42 386.08 498.77 344.08 475.03 344.08 540.41 386.08 564.42"/><polygon class="cls-33" points="379.71 560.64 379.71 502.81 350.08 485.81 350.08 543.44 379.71 560.64"/><polygon class="cls-69" points="377.08 534.8 368.08 529.51 368.08 525.8 377.08 531.1 377.08 534.8"/><polygon class="cls-69" points="250.08 473.31 250.08 417.31 324.08 460.31 324.08 515.3 250.08 473.31"/><polygon class="cls-33" points="256.08 470.58 256.08 427.86 317.08 462.8 317.08 504.75 256.08 470.58"/><polygon class="cls-31" points="247.46 395.06 230.78 404.69 260.29 421.78 276.91 412.15 247.46 395.06"/><polyline class="cls-70" points="260.33 421.78 230.78 404.7 230.78 419.7 260.33 436.78"/><polygon class="cls-71" points="277.01 411.89 260.33 421.53 289.84 438.61 306.46 428.99 277.01 411.89"/><polyline class="cls-72" points="289.88 438.61 260.33 421.53 260.33 436.53 289.88 453.61"/><polygon class="cls-31" points="306.57 429.04 289.88 438.67 319.4 455.76 336.01 446.13 306.57 429.04"/><polyline class="cls-70" points="319.43 455.76 289.88 438.68 289.88 453.68 319.43 470.76"/><polygon class="cls-71" points="336.01 446.09 319.33 455.72 348.84 472.81 365.46 463.18 336.01 446.09"/><polyline class="cls-72" points="348.85 472.81 319.3 455.72 319.3 470.72 348.85 487.81"/><polygon class="cls-31" points="365.46 463.18 348.78 472.82 378.29 489.9 394.91 480.28 365.46 463.18"/><polygon class="cls-70" points="378.33 489.9 348.78 472.82 348.78 487.82 378.33 504.9 378.33 489.9"/><polygon class="cls-73" points="394.91 480.28 394.91 494.18 378.33 504.18 378.33 489.18 394.91 480.28"/><polygon class="cls-74" points="321.67 346.01 321.67 312.5 350.53 329.35 350.53 362.68 321.67 346.01"/><polygon class="cls-75" points="350.53 362.68 379.71 346.01 379.71 312.5 350.53 329.35 350.53 362.68"/><polygon class="cls-76" points="311.71 312.48 350.69 289.97 389.71 312.5 350.52 335.13 311.71 312.48"/><polygon class="cls-75" points="350.53 329.35 321.67 312.5 350.69 295.75 350.53 329.35"/><polygon class="cls-77" points="311.71 312.48 311.71 329.35 350.53 351.76 350.53 335.13 311.71 312.48"/><polygon class="cls-78" points="389.71 312.5 389.71 329.35 350.53 351.81 350.53 335.13 389.71 312.5"/><polygon class="cls-74" points="350.77 295.75 379.63 312.6 350.61 329.35 350.77 295.75"/><polygon class="cls-74" points="354.28 351.38 412.28 384.52 433.83 372.46 376.17 338.95 354.28 351.38"/><line class="cls-66" x1="350.91" y1="353.95" x2="350.91" y2="362.67"/><polygon class="cls-78" points="412.28 393.71 433.83 381.17 433.83 372.46 412.28 384.52 412.28 393.71"/><polyline class="cls-79" points="412.28 384.52 412.28 393.71 354.28 360.11 354.28 351.38 412.28 384.52"/><polygon class="cls-80" points="263.63 379.48 408.53 463.41 408.53 429.78 263.63 345.88 263.63 379.48"/><polygon class="cls-81" points="408.53 463.41 415.39 459.45 415.39 425.94 408.53 429.78 408.53 463.41"/><polygon class="cls-82" points="263.63 345.88 408.53 429.78 415.39 425.94 269.55 342.01 263.63 345.88"/><g class="cls-2"><g class="cls-83"><path class="cls-84" d="M295.15,388.85v-3.07l3.09,1.78a4.47,4.47,0,0,1,1.51,1.28,2.39,2.39,0,0,1,.47,1.37v0c0,.52-.17.81-.51.85a2.33,2.33,0,0,1-1.39-.44l-3.17-1.83m0-5.62v-3l2.64,1.52a4,4,0,0,1,1.3,1.13,2.23,2.23,0,0,1,.45,1.33v0c0,.51-.17.79-.53.82a2.57,2.57,0,0,1-1.41-.46l-2.46-1.42m3-3.9-5.63-3.25,0,14,5.77,3.33a8.58,8.58,0,0,0,1.87.83,2.87,2.87,0,0,0,1.44.11,1.41,1.41,0,0,0,.92-.67,2.92,2.92,0,0,0,.32-1.49v0a5.32,5.32,0,0,0-.6-2.54,9.58,9.58,0,0,0-1.65-2.2,1.58,1.58,0,0,0,.61-.13,1.36,1.36,0,0,0,.51-.35,2,2,0,0,0,.35-.63,3.27,3.27,0,0,0,.13-1v0a5.63,5.63,0,0,0-.82-2.85,8.42,8.42,0,0,0-3.17-3.07" transform="translate(-22.55 -14.63)"/><path class="cls-84" d="M311,398.11a6.31,6.31,0,0,1-1.49-1.2,8.86,8.86,0,0,1-1.16-1.62,8.38,8.38,0,0,1-.76-1.83,6.75,6.75,0,0,1-.26-1.85v0a3.9,3.9,0,0,1,.27-1.53,2.08,2.08,0,0,1,.75-1,1.72,1.72,0,0,1,1.15-.28,3.52,3.52,0,0,1,1.49.52,6.32,6.32,0,0,1,1.47,1.2,8.74,8.74,0,0,1,1.17,1.63,8.19,8.19,0,0,1,.76,1.84,6.75,6.75,0,0,1,.26,1.85v0a3.9,3.9,0,0,1-.27,1.53,2.08,2.08,0,0,1-.75,1,1.79,1.79,0,0,1-1.16.27,3.54,3.54,0,0,1-1.48-.51m0-11.61a6.71,6.71,0,0,0-2.6-.94,3.4,3.4,0,0,0-2,.38,3.34,3.34,0,0,0-1.35,1.52,5.85,5.85,0,0,0-.49,2.52v0a10.55,10.55,0,0,0,.47,3.08,13.62,13.62,0,0,0,1.33,3,15.11,15.11,0,0,0,2,2.72,11.53,11.53,0,0,0,2.59,2.06,6.67,6.67,0,0,0,2.59.93,3.46,3.46,0,0,0,2.05-.37A3.34,3.34,0,0,0,317,400a6,6,0,0,0,.49-2.52v0a10.64,10.64,0,0,0-.47-3.09,14,14,0,0,0-1.33-3,15.17,15.17,0,0,0-2-2.72A11.44,11.44,0,0,0,311,386.5" transform="translate(-22.55 -14.63)"/><path class="cls-84" d="M322.44,404.6v-3.07l3.09,1.78A4.5,4.5,0,0,1,327,404.6a2.41,2.41,0,0,1,.46,1.37v0c0,.52-.17.81-.51.85a2.3,2.3,0,0,1-1.39-.43l-3.18-1.84m0-5.62v-3l2.64,1.52a4,4,0,0,1,1.3,1.13,2.23,2.23,0,0,1,.45,1.33v0c0,.51-.17.79-.53.82a2.55,2.55,0,0,1-1.41-.46L322.45,399m3-3.9-5.63-3.25,0,14,5.77,3.33a8.58,8.58,0,0,0,1.87.83,2.87,2.87,0,0,0,1.44.11,1.36,1.36,0,0,0,.92-.67,2.85,2.85,0,0,0,.32-1.49v0a5.26,5.26,0,0,0-.6-2.54,9.58,9.58,0,0,0-1.65-2.2,1.71,1.71,0,0,0,.61-.12,1.45,1.45,0,0,0,.5-.36,2,2,0,0,0,.35-.63,3.27,3.27,0,0,0,.13-1v0a5.63,5.63,0,0,0-.82-2.85,8.42,8.42,0,0,0-3.17-3.07" transform="translate(-22.55 -14.63)"/><path class="cls-84" d="M336.29,401.11a5.62,5.62,0,0,0-1.71-.69,2.25,2.25,0,0,0-1.34.08,1.75,1.75,0,0,0-.88.82,3.35,3.35,0,0,0-.31,1.55v0a6,6,0,0,0,.28,1.9,6.64,6.64,0,0,0,.81,1.63A10.47,10.47,0,0,0,334.4,408c.5.5,1.05,1,1.66,1.54s.92.82,1.24,1.14a7.45,7.45,0,0,1,.75.83,2.23,2.23,0,0,1,.37.64,1.82,1.82,0,0,1,.09.58v0c0,.41-.16.65-.46.7a2.1,2.1,0,0,1-1.3-.4,7.88,7.88,0,0,1-1.91-1.57,17.59,17.59,0,0,1-1.71-2.22l-1.59,1.26a16.44,16.44,0,0,0,2.43,3.09,13.52,13.52,0,0,0,2.72,2.12,6.32,6.32,0,0,0,1.8.75,2.48,2.48,0,0,0,1.4,0,1.66,1.66,0,0,0,.92-.83,3.56,3.56,0,0,0,.33-1.65v0a5.63,5.63,0,0,0-.25-1.72,6.63,6.63,0,0,0-.74-1.58,10.7,10.7,0,0,0-1.22-1.54c-.48-.51-1-1-1.64-1.58s-1-.85-1.29-1.17a7.88,7.88,0,0,1-.81-.84,2.44,2.44,0,0,1-.41-.69,1.86,1.86,0,0,1-.11-.65v0a.6.6,0,0,1,.39-.65,1.68,1.68,0,0,1,1.18.33,7.23,7.23,0,0,1,1.56,1.27A20.07,20.07,0,0,1,339.4,407l1.39-1.52a15.73,15.73,0,0,0-2.05-2.5,12,12,0,0,0-2.46-1.88" transform="translate(-22.55 -14.63)"/><polyline class="cls-84" points="338.32 400.87 335.44 399.21 332.23 403.27 329.05 395.52 326.17 393.86 326.13 407.82 328.76 409.35 328.79 400.29 332.16 408.15 332.23 408.19 335.67 404.2 335.64 413.32 338.28 414.84 338.32 400.87"/><path class="cls-84" d="M367.51,427.47l1.63-3.59,1.6,5.46-3.23-1.87m2.91-6.55-2.47-1.43-5.24,11.06,2.73,1.57,1.12-2.49,5.13,3,1.11,3.78,2.79,1.61-5.16-17.07" transform="translate(-22.55 -14.63)"/><path class="cls-84" d="M380.16,433.43v-4l2.66,1.53a4.62,4.62,0,0,1,1.54,1.39,3.16,3.16,0,0,1,.55,1.82v0c0,.59-.18,1-.53,1.12a1.8,1.8,0,0,1-1.52-.33l-2.71-1.56m2.9-5.12-5.55-3.21,0,14,2.68,1.54v-4.47l2.06,1.19,0,0,2.59,6,3.13,1.81-3-6.7a2.19,2.19,0,0,0,1.89-.48,3.08,3.08,0,0,0,.73-2.34v0a7.48,7.48,0,0,0-1-3.79,9.47,9.47,0,0,0-3.54-3.46" transform="translate(-22.55 -14.63)"/><polyline class="cls-84" points="378.33 423.97 375.11 422.11 370.15 425.37 370.17 419.26 367.5 417.72 367.46 431.69 370.13 433.23 370.14 428.96 371.56 428.09 375.31 436.22 378.52 438.07 373.37 427.04 378.33 423.97"/><polyline class="cls-84" points="389.32 430.32 380.17 425.03 380.13 439 389.37 444.34 389.38 441.6 382.78 437.79 382.79 434.86 388.51 438.16 388.52 435.43 382.8 432.13 382.8 429.3 389.31 433.05 389.32 430.32"/><polyline class="cls-84" points="401 437.06 390.93 431.25 390.93 434.08 394.62 436.21 394.59 447.35 397.26 448.9 397.3 437.76 400.99 439.89 401 437.06"/></g></g><polygon class="cls-27" points="349.98 540.4 275.2 584.22 304.58 600.97 380.16 557.46 349.98 540.4"/><polygon class="cls-85" points="304.58 600.97 304.58 603.83 275.2 587 275.2 584.22 304.58 600.97"/><polygon class="cls-86" points="304.58 603.83 380.16 560.66 380.16 557.46 304.58 600.97 304.58 603.83"/><polygon class="cls-87" points="269.41 475.56 295.94 460.24 286.37 454.72 260.3 470.22 269.41 475.56"/><polygon class="cls-87" points="302.92 464.11 276.85 479.61 285.95 484.96 302.92 464.11"/><polygon class="cls-87" points="369.17 502.64 352.14 518.14 352.2 523.49 369.17 502.64"/><line class="cls-88" x1="301.39" y1="568.87" x2="330.83" y2="585.86"/><line class="cls-88" x1="330.83" y1="551.88" x2="360.26" y2="568.87"/><polygon class="cls-89" points="109.5 449.51 118.4 453.12 118.42 443.76 109.51 440.18 109.5 449.51"/><polygon class="cls-90" points="125.82 448.65 118.4 453.12 118.4 443.76 125.82 439.44 125.82 448.65"/><polygon class="cls-91" points="125.82 439.44 117.71 435.34 109.51 440.18 118.4 443.76 125.82 439.44"/><polygon class="cls-89" points="108.54 406.02 121.84 411.42 121.87 397.43 108.57 392.08 108.54 406.02"/><polygon class="cls-90" points="132.93 404.74 121.84 411.42 121.84 397.43 132.93 390.99 132.93 404.74"/><polygon class="cls-91" points="132.93 390.99 120.82 384.86 108.57 392.08 121.84 397.43 132.93 390.99"/><polygon class="cls-74" points="110.97 466.64 140.34 483.77 169.36 467.02 140.16 449.68 110.97 466.64"/><polygon class="cls-92" points="140.34 483.77 110.97 466.64 110.97 482.77 140.34 499.52 140.34 483.77"/><polygon class="cls-93" points="169.36 467.02 140.34 483.77 140.34 499.52 169.36 482.36 169.36 467.02"/><polygon class="cls-94" points="131.59 468.09 140.34 473.19 140.34 457.74 131.59 452.68 131.59 468.09"/><path class="cls-94" d="M154.11,493.18" transform="translate(-22.55 -14.63)"/><polygon class="cls-95" points="149.09 468.09 140.34 473.19 140.34 457.74 149.09 452.68 149.09 468.09"/><polygon class="cls-89" points="118.24 455.07 140.35 464.05 140.4 380.7 118.28 371.81 118.24 455.07"/><polygon class="cls-90" points="158.78 452.95 140.35 464.05 140.35 380.7 158.78 369.99 158.78 452.95"/><polygon class="cls-91" points="158.78 369.99 138.65 359.8 118.28 371.81 140.35 380.7 158.78 369.99"/><polygon class="cls-96" points="249.46 509.37 234.4 501.38 233.82 484.23 248.88 492.26 249.46 509.37"/><polygon class="cls-97" points="249.45 509.37 263.94 500.38 263.36 483.23 248.87 492.26 249.45 509.37"/><polygon class="cls-98" points="248.87 492.26 233.82 484.23 248.29 474.9 263.36 483.23 248.87 492.26"/><polygon class="cls-96" points="272.85 522.97 257.79 514.98 257.21 497.83 272.27 505.86 272.85 522.97"/><polygon class="cls-97" points="272.84 522.97 287.32 513.98 286.75 496.83 272.26 505.86 272.84 522.97"/><polygon class="cls-98" points="272.26 505.86 257.21 497.83 271.68 488.51 286.75 496.83 272.26 505.86"/><polygon class="cls-96" points="296.62 537.69 281.56 529.7 280.98 512.55 296.04 520.58 296.62 537.69"/><polygon class="cls-97" points="296.61 537.69 311.1 528.7 310.52 511.55 296.03 520.58 296.61 537.69"/><polygon class="cls-98" points="296.03 520.58 280.98 512.55 295.46 503.22 310.52 511.55 296.03 520.58"/><polygon class="cls-96" points="320 551.96 304.94 543.97 304.36 526.82 319.42 534.85 320 551.96"/><polygon class="cls-97" points="319.99 551.96 334.47 542.97 333.89 525.82 319.41 534.85 319.99 551.96"/><polygon class="cls-98" points="319.41 534.85 304.36 526.82 318.83 517.5 333.89 525.82 319.41 534.85"/><polygon class="cls-89" points="140.19 412.54 158.44 419.94 158.48 400.75 140.22 393.41 140.19 412.54"/><polygon class="cls-90" points="173.65 410.78 158.44 419.94 158.44 400.75 173.65 391.91 173.65 410.78"/><polygon class="cls-91" points="173.65 391.91 157.03 383.5 140.22 393.41 158.44 400.75 173.65 391.91"/><polygon class="cls-89" points="103.99 433.61 122.24 441.02 122.28 421.83 104.02 414.49 103.99 433.61"/><polygon class="cls-90" points="137.45 431.86 122.24 441.02 122.24 421.83 137.45 412.99 137.45 431.86"/><polygon class="cls-91" points="137.45 412.99 120.83 404.57 104.02 414.49 122.24 421.83 137.45 412.99"/><polygon class="cls-89" points="142.66 450.33 155.96 455.73 155.99 441.74 142.68 436.39 142.66 450.33"/><polygon class="cls-90" points="167.04 449.05 155.96 455.73 155.96 441.74 167.04 435.3 167.04 449.05"/><polygon class="cls-91" points="167.04 435.3 154.93 429.16 142.68 436.39 155.96 441.74 167.04 435.3"/><polygon class="cls-89" points="529.68 450 538.59 453.62 538.61 444.25 529.7 440.67 529.68 450"/><polygon class="cls-90" points="546.01 449.15 538.59 453.62 538.59 444.25 546.01 439.94 546.01 449.15"/><polygon class="cls-91" points="546.01 439.94 537.9 435.83 529.7 440.67 538.59 444.25 546.01 439.94"/><polygon class="cls-89" points="528.73 406.51 542.03 411.91 542.06 397.93 528.75 392.57 528.73 406.51"/><polygon class="cls-90" points="553.11 405.24 542.03 411.91 542.03 397.93 553.11 391.48 553.11 405.24"/><polygon class="cls-91" points="553.11 391.48 541 385.35 528.75 392.57 542.03 397.93 553.11 391.48"/><polygon class="cls-74" points="531.15 467.13 560.52 484.27 589.54 467.52 560.35 450.18 531.15 467.13"/><polygon class="cls-92" points="560.52 484.27 531.15 467.13 531.15 483.26 560.52 500.02 560.52 484.27"/><polygon class="cls-93" points="589.54 467.52 560.52 484.27 560.52 500.02 589.54 482.86 589.54 467.52"/><polygon class="cls-94" points="551.78 468.58 560.52 473.69 560.52 458.23 551.78 453.17 551.78 468.58"/><path class="cls-94" d="M574.29,493.67" transform="translate(-22.55 -14.63)"/><polygon class="cls-95" points="569.27 468.58 560.52 473.69 560.52 458.23 569.27 453.17 569.27 468.58"/><polygon class="cls-89" points="538.42 455.57 560.54 464.54 560.59 381.2 538.47 372.3 538.42 455.57"/><polygon class="cls-90" points="578.96 453.44 560.54 464.54 560.54 381.2 578.96 370.49 578.96 453.44"/><polygon class="cls-91" points="578.96 370.49 558.83 360.29 538.47 372.3 560.54 381.2 578.96 370.49"/><polygon class="cls-89" points="560.41 421.72 578.66 429.12 578.7 409.93 560.45 402.59 560.41 421.72"/><polygon class="cls-90" points="593.87 419.96 578.66 429.12 578.66 409.93 593.87 401.09 593.87 419.96"/><polygon class="cls-91" points="593.87 401.09 577.25 392.68 560.45 402.59 578.66 409.93 593.87 401.09"/><polygon class="cls-89" points="525.3 409.93 543.55 417.34 543.59 398.15 525.34 390.81 525.3 409.93"/><polygon class="cls-90" points="558.76 408.18 543.55 417.34 543.55 398.15 558.76 389.31 558.76 408.18"/><polygon class="cls-91" points="558.76 389.31 542.14 380.89 525.34 390.81 543.55 398.15 558.76 389.31"/><polygon class="cls-89" points="560.83 440.71 568.09 443.65 568.1 436.02 560.84 433.11 560.83 440.71"/><polygon class="cls-90" points="574.13 440.01 568.09 443.65 568.09 436.02 574.13 432.51 574.13 440.01"/><polygon class="cls-91" points="574.13 432.51 567.52 429.16 560.84 433.11 568.09 436.02 574.13 432.51"/><polygon class="cls-89" points="568.38 453.39 575.64 456.33 575.65 448.7 568.4 445.78 568.38 453.39"/><polygon class="cls-90" points="581.69 452.69 575.64 456.33 575.64 448.7 581.69 445.19 581.69 452.69"/><polygon class="cls-91" points="581.69 445.19 575.08 441.84 568.4 445.78 575.64 448.7 581.69 445.19"/><polygon class="cls-89" points="533.18 444.21 546.99 449.81 547.02 435.29 533.21 429.74 533.18 444.21"/><polygon class="cls-90" points="558.5 442.88 546.99 449.81 546.99 435.29 558.5 428.6 558.5 442.88"/><polygon class="cls-91" points="558.5 428.6 545.93 422.24 533.21 429.74 546.99 435.29 558.5 428.6"/><polygon class="cls-96" points="303.05 286.02 287.99 278.03 287.41 260.89 302.47 268.92 303.05 286.02"/><polygon class="cls-97" points="303.04 286.03 317.53 277.03 316.95 259.89 302.46 268.92 303.04 286.03"/><polygon class="cls-98" points="302.46 268.92 287.41 260.89 301.88 251.56 316.95 259.89 302.46 268.92"/><polygon class="cls-96" points="332.45 268.79 317.39 260.8 316.81 243.66 331.88 251.68 332.45 268.79"/><polygon class="cls-97" points="332.44 268.79 346.93 259.8 346.35 242.66 331.87 251.68 332.44 268.79"/><polygon class="cls-98" points="331.87 251.68 316.81 243.66 331.29 234.33 346.35 242.66 331.87 251.68"/><polygon class="cls-99" points="409.48 577.3 428.99 588.85 544.35 522.08 525.04 510.57 409.48 577.3"/><polygon class="cls-99" points="428.99 588.85 428.99 603.71 544.35 537.12 544.35 522.08 428.99 588.85"/><polygon class="cls-99" points="561 500.02 571.33 506.06 600.33 489.18 590.02 482.86 561 500.02"/><polygon class="cls-99" points="571.33 506.09 571.33 521.58 600.33 504.88 600.33 489.2 571.33 506.09"/><polygon class="cls-99" points="140.34 499.52 155.42 510.06 164.49 505.09 170.49 509.1 162.65 513.43 249.23 565.2 277.48 549.48 189.13 498.08 181.83 502.59 175.79 498.55 180.24 495.93 185.9 492.56 169.36 482.36 140.34 499.52"/><polygon class="cls-99" points="409.28 463.29 421.44 470.08 455.97 449.83 416.14 425.81 409.28 429.66 409.28 463.29"/><polygon class="cls-99" points="351.28 362.55 358.83 366.56 350.25 371.6 377.86 389.17 427.67 360.41 399.57 343.12 391.77 347.51 380.3 340.8 380.3 335 390.46 329.23 390.46 312.38 351.27 335 351.28 362.55"/><polygon class="cls-99" points="391.65 381.2 420.84 364.35 434.58 372.34 434.58 381.05 443.99 385.77 421.39 398.52 391.65 381.2"/><polygon class="cls-99" points="249.46 509.37 257.75 513.43 257.43 504.42 249.46 509.37"/><polygon class="cls-99" points="272.85 522.97 281.5 527.85 281.16 517.81 272.85 522.97"/><polygon class="cls-99" points="296.61 537.69 304.88 541.93 304.56 532.76 296.61 537.69"/><polygon class="cls-99" points="319.99 551.96 339.06 562.37 354.96 553.18 334.47 542.97 319.99 551.96"/><polygon class="cls-99" points="317.53 277.03 341.58 290.51 325.62 299.39 303.04 286.03 317.53 277.03"/><polygon class="cls-99" points="346.94 259.89 370.99 273.37 355.03 282.24 332.45 268.88 346.94 259.89"/><path class="cls-99" d="M68.58,463.59l14.13,6.17s6.27-.28,6.47-3.2l-10.75-6.42S78,469.23,68.58,463.59Z" transform="translate(-22.55 -14.63)"/><path class="cls-99" d="M105.57,483.67l25.3,14.74,2.65-1V481.27l14.66-8.51-5.85-2.42-22.45,13.34-6.65-3.9S113.1,486,105.57,483.67Z" transform="translate(-22.55 -14.63)"/><path class="cls-99" d="M182.21,396.44l11.17,5.75s9.15.21,9.08-7.17l-9.36-5.4S193.72,400.41,182.21,396.44Z" transform="translate(-22.55 -14.63)"/><path class="cls-99" d="M222.59,419.29l31.49,14.91v-15l3.49-2.15.19-9.75-17.58,9.49-6.36-3.67S233.3,422.77,222.59,419.29Z" transform="translate(-22.55 -14.63)"/></g></g></svg>